<?xml version="1.0" encoding="UTF-8" standalone="no"?>
<svg
   xmlns:dc="http://purl.org/dc/elements/1.1/"
   xmlns:cc="http://creativecommons.org/ns#"
   xmlns:rdf="http://www.w3.org/1999/02/22-rdf-syntax-ns#"
   xmlns:svg="http://www.w3.org/2000/svg"
   xmlns="http://www.w3.org/2000/svg"
   xmlns:sodipodi="http://sodipodi.sourceforge.net/DTD/sodipodi-0.dtd"
   xmlns:inkscape="http://www.inkscape.org/namespaces/inkscape"
   height="43.770088"
   viewBox="0 0 34 43.770088"
   width="34"
   version="1.1"
   id="svg8"
   sodipodi:docname="bronze-medal.svg"
   inkscape:version="1.0.2 (e86c870879, 2021-01-15)">
  <metadata
     id="metadata14">
    <rdf:RDF>
      <cc:Work
         rdf:about="">
        <dc:format>image/svg+xml</dc:format>
        <dc:type
           rdf:resource="http://purl.org/dc/dcmitype/StillImage" />
        <dc:title></dc:title>
      </cc:Work>
    </rdf:RDF>
  </metadata>
  <defs
     id="defs12" />
  <sodipodi:namedview
     pagecolor="#ffffff"
     bordercolor="#666666"
     borderopacity="1"
     objecttolerance="10"
     gridtolerance="10"
     guidetolerance="10"
     inkscape:pageopacity="0"
     inkscape:pageshadow="2"
     inkscape:window-width="1920"
     inkscape:window-height="1011"
     id="namedview10"
     showgrid="false"
     inkscape:zoom="8.9935144"
     inkscape:cx="27.105676"
     inkscape:cy="24.490593"
     inkscape:window-x="0"
     inkscape:window-y="0"
     inkscape:window-maximized="1"
     inkscape:current-layer="svg8"
     fit-margin-top="5"
     fit-margin-left="5"
     fit-margin-right="5"
     fit-margin-bottom="5" />
  <g
     id="g862"
     style="fill:#ac9d93"
     transform="matrix(2.3062214,0,0,2.3062214,-1.9100804,3.4880093)">
    <path
       id="rect843"
       style="fill:#ac9d93;fill-opacity:1;stroke:none;stroke-width:0.716158;stroke-linecap:round;stroke-miterlimit:4;stroke-dasharray:none;stroke-opacity:1"
       d="m 6.5545983,8.2273401 2.2368396,1.2914406 c 0.168769,0.097439 0.2261908,0.3117529 0.1287544,0.48052 L 5.9855484,15.082253 C 5.8881094,15.251022 5.6737976,15.308448 5.5050271,15.21101 L 4.8831449,13.674032 3.2681879,13.919571 C 3.075525,13.948865 3.0419956,13.607817 3.1394346,13.439048 L 6.0740787,8.3560955 C 6.1715173,8.1873262 6.3858293,8.1299021 6.5545983,8.2273401 Z"
       sodipodi:nodetypes="ssssscssss" />
    <path
       id="path846"
       style="fill:#ac9d93;fill-opacity:1;stroke:none;stroke-width:0.716158;stroke-linecap:round;stroke-miterlimit:4;stroke-dasharray:none;stroke-opacity:1"
       d="M 7.6133234,9.5216295 9.8501633,8.2301896 c 0.1687697,-0.097439 0.3830787,-0.040011 0.4805187,0.1287559 l 2.934638,5.0829515 c 0.09744,0.168769 0.04002,0.383081 -0.128753,0.480522 l -1.642003,-0.229922 -0.594835,1.521363 c -0.07097,0.181495 -0.383077,0.04002 -0.480517,-0.128757 L 7.4845692,10.00215 C 7.38713,9.8333805 7.4445545,9.6190689 7.6133234,9.5216295 Z"
       sodipodi:nodetypes="ssssscssss" />
  </g>
  <path
     id="path839"
     style="fill:#483e37;stroke:none;stroke-width:15.6166;stroke-linecap:round"
     d="M 16.761071,5.0005946 A 12.000508,12.000508 0 0 0 5.0000001,17.000594 12.000508,12.000508 0 0 0 17,29.000593 12.000508,12.000508 0 0 0 29,17.000594 12.000508,12.000508 0 0 0 17,5.0005946 a 12.000508,12.000508 0 0 0 -0.238929,0 z" />
  <text
     xml:space="preserve"
     style="font-style:normal;font-variant:normal;font-weight:normal;font-stretch:normal;font-size:18.0983px;line-height:1.25;font-family:all-the-icons;-inkscape-font-specification:all-the-icons;fill:#c8beb7;fill-opacity:1;stroke:none;stroke-width:0.452458"
     x="11.860076"
     y="23.551891"
     id="text858"><tspan
       sodipodi:role="line"
       id="tspan856"
       x="11.860076"
       y="23.551891"
       style="font-style:normal;font-variant:normal;font-weight:normal;font-stretch:normal;font-family:'Noto Sans';-inkscape-font-specification:'Noto Sans';fill:#c8beb7;stroke-width:0.452458">3</tspan></text>
</svg>
