<?xml version="1.0" encoding="UTF-8" standalone="no"?>
<svg
   viewBox="0 0 24 24"
   fill="black"
   width="48px"
   height="48px"
   version="1.1"
   id="svg6"
   sodipodi:docname="climbing_black_48dp.svg"
   inkscape:version="1.1.2 (0a00cf5339, 2022-02-04)"
   xmlns:inkscape="http://www.inkscape.org/namespaces/inkscape"
   xmlns:sodipodi="http://sodipodi.sourceforge.net/DTD/sodipodi-0.dtd"
   xmlns="http://www.w3.org/2000/svg"
   xmlns:svg="http://www.w3.org/2000/svg">
  <defs
     id="defs10" />
  <sodipodi:namedview
     id="namedview8"
     pagecolor="#ffffff"
     bordercolor="#666666"
     borderopacity="1.0"
     inkscape:pageshadow="2"
     inkscape:pageopacity="0.0"
     inkscape:pagecheckerboard="0"
     showgrid="false"
     showguides="false"
     inkscape:zoom="8.0833334"
     inkscape:cx="39.092783"
     inkscape:cy="39.216495"
     inkscape:window-width="1920"
     inkscape:window-height="1011"
     inkscape:window-x="0"
     inkscape:window-y="0"
     inkscape:window-maximized="1"
     inkscape:current-layer="svg6" />
  <path
     style="fill:none;stroke:#000000;stroke-width:1.30458;stroke-linecap:round;stroke-linejoin:miter;stroke-miterlimit:4;stroke-dasharray:none;stroke-opacity:1"
     d="m 9.1779487,0.85959461 c 0,0 0.6411952,3.01462869 1.7280493,3.97871189 1.086867,0.9640843 2.460565,0.4851009 3.615789,1.5317353 1.155207,1.0466345 0.658719,2.77215 1.694592,4.2956932 1.035868,1.523564 3.630756,2.031847 4.74109,3.73594 1.110321,1.704046 1.534966,5.973041 1.534966,5.973041"
     id="path1108"
     sodipodi:nodetypes="czzzzc" />
  <path
     style="fill:none;stroke:#000000;stroke-width:1.30458;stroke-linecap:round;stroke-linejoin:miter;stroke-miterlimit:4;stroke-dasharray:none;stroke-opacity:1"
     d="M 4.2640605,23.20852 H 18.977969"
     id="path1933"
     sodipodi:nodetypes="cc" />
  <path
     id="rect2109"
     style="stroke-width:2.19319;stroke-linecap:round"
     d="m 5.4276705,10.818877 c 0.00766,-0.171517 0.1677902,-0.414502 0.1677902,-0.414502 l 1.5502546,-1.5502475 4.8541577,4.8541775 -1.319257,2.654391 c 0,0 -1.9690673,-1.648343 -2.8892562,-2.572002 C 7.1638322,13.160647 6.1743272,12.011477 5.6084904,11.34431 5.3446615,11.033212 5.4200334,10.990413 5.4276705,10.818877 Z"
     sodipodi:nodetypes="zccccssz" />
  <path
     style="fill:none;stroke:#000000;stroke-width:1.09651;stroke-linecap:round;stroke-linejoin:miter;stroke-miterlimit:4;stroke-dasharray:none;stroke-opacity:1"
     d="m 7.0817663,10.316157 c 0,0 0.6667596,-1.8546699 0.820138,-2.8887802 C 8.05529,6.3932664 7.9603016,4.1583087 7.9603016,4.1583087"
     id="path2356"
     sodipodi:nodetypes="czc" />
  <path
     style="fill:none;stroke:#000000;stroke-width:1.09651;stroke-linecap:round;stroke-linejoin:miter;stroke-miterlimit:4;stroke-dasharray:none;stroke-opacity:1"
     d="M 7.0817663,10.316157 9.4090924,9.1864065 9.8951898,6.8823115"
     id="path2930"
     sodipodi:nodetypes="ccc" />
  <circle
     style="fill:#000000;fill-opacity:1;stroke:none;stroke-width:1.70751;stroke-linecap:round;stroke-miterlimit:4;stroke-dasharray:none;stroke-opacity:1"
     id="path3265"
     cx="4.6036863"
     cy="7.2411432"
     r="2.0504303" />
  <path
     id="rect3369"
     style="stroke-width:1.09651;stroke-linecap:round"
     d="m 9.5878247,13.743407 4.2831913,-0.970982 0.439271,1.937705 -3.629671,1.652566 z"
     sodipodi:nodetypes="ccccc" />
  <path
     id="rect3553"
     style="stroke-width:1.09651;stroke-linecap:round"
     d="m 13.871022,12.772425 4.267668,2.163698 -0.169434,1.181467 -4.810985,-1.56813 z"
     sodipodi:nodetypes="ccccc" />
  <path
     style="fill:none;stroke:#000000;stroke-width:1.2427;stroke-linecap:round;stroke-linejoin:miter;stroke-miterlimit:4;stroke-dasharray:none;stroke-opacity:1"
     d="m 11.008452,15.831397 c 0,0 2.421805,0.530468 2.793144,0.794701 0.37134,0.264225 2.371975,3.036973 2.371975,3.036973"
     id="path4701"
     sodipodi:nodetypes="czc" />
  <path
     id="rect5314"
     style="stroke-width:1.2427;stroke-linecap:round"
     d="m 8.3577224,16.138048 c 0,0 1.1862338,-0.385476 1.520918,-0.166075 0.3346726,0.21941 0.6343286,2.149808 0.6343286,2.149808 l -0.5741111,0.224438 -0.7389286,0.04677 -0.2829735,-1.071833 z"
     sodipodi:nodetypes="czccccc" />
</svg>
