<?xml version="1.0" encoding="UTF-8" standalone="no"?>
<svg
   height="16px"
   viewBox="0 0 16 16"
   width="16px"
   version="1.1"
   id="svg117"
   sodipodi:docname="location-position.svg"
   inkscape:version="1.1.2 (0a00cf5339, 2022-02-04)"
   xmlns:inkscape="http://www.inkscape.org/namespaces/inkscape"
   xmlns:sodipodi="http://sodipodi.sourceforge.net/DTD/sodipodi-0.dtd"
   xmlns="http://www.w3.org/2000/svg"
   xmlns:svg="http://www.w3.org/2000/svg">
  <defs
     id="defs121" />
  <sodipodi:namedview
     id="namedview119"
     pagecolor="#ffffff"
     bordercolor="#666666"
     borderopacity="1.0"
     inkscape:pageshadow="2"
     inkscape:pageopacity="0.0"
     inkscape:pagecheckerboard="0"
     showgrid="false"
     inkscape:zoom="24.4375"
     inkscape:cx="8.8797954"
     inkscape:cy="6.5268542"
     inkscape:window-width="1846"
     inkscape:window-height="1016"
     inkscape:window-x="0"
     inkscape:window-y="0"
     inkscape:window-maximized="1"
     inkscape:current-layer="svg117" />
  <filter
     id="a"
     height="1"
     width="1"
     x="0"
     y="0">
    <feColorMatrix
       in="SourceGraphic"
       type="matrix"
       values="0 0 0 0 1 0 0 0 0 1 0 0 0 0 1 0 0 0 1 0"
       id="feColorMatrix2" />
  </filter>
  <mask
     id="b">
    <g
       filter="url(#a)"
       id="g7">
      <path
         d="m 0 0 h 16 v 16 h -16 z"
         fill-opacity="0.3"
         id="path5" />
    </g>
  </mask>
  <clipPath
     id="c">
    <path
       d="m 0 0 h 1600 v 1200 h -1600 z"
       id="path10" />
  </clipPath>
  <mask
     id="d">
    <g
       filter="url(#a)"
       id="g15">
      <path
         d="m 0 0 h 16 v 16 h -16 z"
         fill-opacity="0.05"
         id="path13" />
    </g>
  </mask>
  <clipPath
     id="e">
    <path
       d="m 0 0 h 1600 v 1200 h -1600 z"
       id="path18" />
  </clipPath>
  <mask
     id="f">
    <g
       filter="url(#a)"
       id="g23">
      <path
         d="m 0 0 h 16 v 16 h -16 z"
         fill-opacity="0.05"
         id="path21" />
    </g>
  </mask>
  <clipPath
     id="g">
    <path
       d="m 0 0 h 1600 v 1200 h -1600 z"
       id="path26" />
  </clipPath>
  <mask
     id="h">
    <g
       filter="url(#a)"
       id="g31">
      <path
         d="m 0 0 h 16 v 16 h -16 z"
         fill-opacity="0.05"
         id="path29" />
    </g>
  </mask>
  <clipPath
     id="i">
    <path
       d="m 0 0 h 1600 v 1200 h -1600 z"
       id="path34" />
  </clipPath>
  <mask
     id="j">
    <g
       filter="url(#a)"
       id="g39">
      <path
         d="m 0 0 h 16 v 16 h -16 z"
         fill-opacity="0.05"
         id="path37" />
    </g>
  </mask>
  <clipPath
     id="k">
    <path
       d="m 0 0 h 1600 v 1200 h -1600 z"
       id="path42" />
  </clipPath>
  <mask
     id="l">
    <g
       filter="url(#a)"
       id="g47">
      <path
         d="m 0 0 h 16 v 16 h -16 z"
         fill-opacity="0.05"
         id="path45" />
    </g>
  </mask>
  <clipPath
     id="m">
    <path
       d="m 0 0 h 1600 v 1200 h -1600 z"
       id="path50" />
  </clipPath>
  <mask
     id="n">
    <g
       filter="url(#a)"
       id="g55">
      <path
         d="m 0 0 h 16 v 16 h -16 z"
         fill-opacity="0.05"
         id="path53" />
    </g>
  </mask>
  <clipPath
     id="o">
    <path
       d="m 0 0 h 1600 v 1200 h -1600 z"
       id="path58" />
  </clipPath>
  <mask
     id="p">
    <g
       filter="url(#a)"
       id="g63">
      <path
         d="m 0 0 h 16 v 16 h -16 z"
         fill-opacity="0.3"
         id="path61" />
    </g>
  </mask>
  <clipPath
     id="q">
    <path
       d="m 0 0 h 1600 v 1200 h -1600 z"
       id="path66" />
  </clipPath>
  <mask
     id="r">
    <g
       filter="url(#a)"
       id="g71">
      <path
         d="m 0 0 h 16 v 16 h -16 z"
         fill-opacity="0.5"
         id="path69" />
    </g>
  </mask>
  <clipPath
     id="s">
    <path
       d="m 0 0 h 1600 v 1200 h -1600 z"
       id="path74" />
  </clipPath>
  <g
     clip-path="url(#c)"
     mask="url(#b)"
     transform="matrix(1 0 0 1 -36 -756)"
     id="g79">
    <path
       d="m 562.460938 212.058594 h 10.449218 c -1.183594 0.492187 -1.296875 2.460937 0 3 h -10.449218 z m 0 0"
       fill="#2e3436"
       id="path77" />
  </g>
  <g
     clip-path="url(#e)"
     mask="url(#d)"
     transform="matrix(1 0 0 1 -36 -756)"
     id="g83">
    <path
       d="m 16 748 h 1 v 1 h -1 z m 0 0"
       fill="#2e3436"
       fill-rule="evenodd"
       id="path81" />
  </g>
  <g
     clip-path="url(#g)"
     mask="url(#f)"
     transform="matrix(1 0 0 1 -36 -756)"
     id="g87">
    <path
       d="m 17 747 h 1 v 1 h -1 z m 0 0"
       fill="#2e3436"
       fill-rule="evenodd"
       id="path85" />
  </g>
  <g
     clip-path="url(#i)"
     mask="url(#h)"
     transform="matrix(1 0 0 1 -36 -756)"
     id="g91">
    <path
       d="m 18 750 h 1 v 1 h -1 z m 0 0"
       fill="#2e3436"
       fill-rule="evenodd"
       id="path89" />
  </g>
  <g
     clip-path="url(#k)"
     mask="url(#j)"
     transform="matrix(1 0 0 1 -36 -756)"
     id="g95">
    <path
       d="m 16 750 h 1 v 1 h -1 z m 0 0"
       fill="#2e3436"
       fill-rule="evenodd"
       id="path93" />
  </g>
  <g
     clip-path="url(#m)"
     mask="url(#l)"
     transform="matrix(1 0 0 1 -36 -756)"
     id="g99">
    <path
       d="m 17 751 h 1 v 1 h -1 z m 0 0"
       fill="#2e3436"
       fill-rule="evenodd"
       id="path97" />
  </g>
  <g
     clip-path="url(#o)"
     mask="url(#n)"
     transform="matrix(1 0 0 1 -36 -756)"
     id="g103">
    <path
       d="m 19 751 h 1 v 1 h -1 z m 0 0"
       fill="#2e3436"
       fill-rule="evenodd"
       id="path101" />
  </g>
  <g
     clip-path="url(#q)"
     mask="url(#p)"
     transform="matrix(1 0 0 1 -36 -756)"
     id="g111">
    <path
       d="m 136 776 v 7 h 7 v -7 z m 0 0"
       fill="#2e3436"
       id="path109" />
  </g>
  <g
     clip-path="url(#s)"
     mask="url(#r)"
     transform="matrix(1 0 0 1 -36 -756)"
     id="g115">
    <path
       d="m 219 758 h 3 v 12 h -3 z m 0 0"
       fill="#2e3436"
       id="path113" />
  </g>
  <circle
     style="fill:#5a5a5a;fill-opacity:1;fill-rule:evenodd;stroke:#ffffff;stroke-width:1.0068;stroke-opacity:1"
     id="path305"
     cx="8.0268545"
     cy="8.0183821"
     r="6.9662728" />
  <circle
     style="fill:#5a5a5a;fill-opacity:1;fill-rule:evenodd;stroke:#ffffff;stroke-width:1.908;stroke-miterlimit:4;stroke-dasharray:none"
     id="path908"
     cx="8.0268545"
     cy="8.0183821"
     r="2.7464032" />
</svg>
