<?xml version="1.0" encoding="UTF-8" standalone="no"?>
<svg
   height="16px"
   viewBox="0 0 16 16"
   width="16px"
   version="1.1"
   id="svg117"
   sodipodi:docname="location-end.svg"
   inkscape:version="1.1.2 (0a00cf5339, 2022-02-04)"
   xmlns:inkscape="http://www.inkscape.org/namespaces/inkscape"
   xmlns:sodipodi="http://sodipodi.sourceforge.net/DTD/sodipodi-0.dtd"
   xmlns="http://www.w3.org/2000/svg"
   xmlns:svg="http://www.w3.org/2000/svg">
  <defs
     id="defs121" />
  <sodipodi:namedview
     id="namedview119"
     pagecolor="#ffffff"
     bordercolor="#666666"
     borderopacity="1.0"
     inkscape:pageshadow="2"
     inkscape:pageopacity="0.0"
     inkscape:pagecheckerboard="0"
     showgrid="false"
     inkscape:zoom="16"
     inkscape:cx="7.375"
     inkscape:cy="10.65625"
     inkscape:window-width="1846"
     inkscape:window-height="1016"
     inkscape:window-x="0"
     inkscape:window-y="0"
     inkscape:window-maximized="1"
     inkscape:current-layer="svg117" />
  <filter
     id="a"
     height="1"
     width="1"
     x="0"
     y="0">
    <feColorMatrix
       in="SourceGraphic"
       type="matrix"
       values="0 0 0 0 1 0 0 0 0 1 0 0 0 0 1 0 0 0 1 0"
       id="feColorMatrix2" />
  </filter>
  <mask
     id="b">
    <g
       filter="url(#a)"
       id="g7">
      <path
         d="m 0 0 h 16 v 16 h -16 z"
         fill-opacity="0.3"
         id="path5" />
    </g>
  </mask>
  <clipPath
     id="c">
    <path
       d="m 0 0 h 1600 v 1200 h -1600 z"
       id="path10" />
  </clipPath>
  <mask
     id="d">
    <g
       filter="url(#a)"
       id="g15">
      <path
         d="m 0 0 h 16 v 16 h -16 z"
         fill-opacity="0.05"
         id="path13" />
    </g>
  </mask>
  <clipPath
     id="e">
    <path
       d="m 0 0 h 1600 v 1200 h -1600 z"
       id="path18" />
  </clipPath>
  <mask
     id="f">
    <g
       filter="url(#a)"
       id="g23">
      <path
         d="m 0 0 h 16 v 16 h -16 z"
         fill-opacity="0.05"
         id="path21" />
    </g>
  </mask>
  <clipPath
     id="g">
    <path
       d="m 0 0 h 1600 v 1200 h -1600 z"
       id="path26" />
  </clipPath>
  <mask
     id="h">
    <g
       filter="url(#a)"
       id="g31">
      <path
         d="m 0 0 h 16 v 16 h -16 z"
         fill-opacity="0.05"
         id="path29" />
    </g>
  </mask>
  <clipPath
     id="i">
    <path
       d="m 0 0 h 1600 v 1200 h -1600 z"
       id="path34" />
  </clipPath>
  <mask
     id="j">
    <g
       filter="url(#a)"
       id="g39">
      <path
         d="m 0 0 h 16 v 16 h -16 z"
         fill-opacity="0.05"
         id="path37" />
    </g>
  </mask>
  <clipPath
     id="k">
    <path
       d="m 0 0 h 1600 v 1200 h -1600 z"
       id="path42" />
  </clipPath>
  <mask
     id="l">
    <g
       filter="url(#a)"
       id="g47">
      <path
         d="m 0 0 h 16 v 16 h -16 z"
         fill-opacity="0.05"
         id="path45" />
    </g>
  </mask>
  <clipPath
     id="m">
    <path
       d="m 0 0 h 1600 v 1200 h -1600 z"
       id="path50" />
  </clipPath>
  <mask
     id="n">
    <g
       filter="url(#a)"
       id="g55">
      <path
         d="m 0 0 h 16 v 16 h -16 z"
         fill-opacity="0.05"
         id="path53" />
    </g>
  </mask>
  <clipPath
     id="o">
    <path
       d="m 0 0 h 1600 v 1200 h -1600 z"
       id="path58" />
  </clipPath>
  <mask
     id="p">
    <g
       filter="url(#a)"
       id="g63">
      <path
         d="m 0 0 h 16 v 16 h -16 z"
         fill-opacity="0.3"
         id="path61" />
    </g>
  </mask>
  <clipPath
     id="q">
    <path
       d="m 0 0 h 1600 v 1200 h -1600 z"
       id="path66" />
  </clipPath>
  <mask
     id="r">
    <g
       filter="url(#a)"
       id="g71">
      <path
         d="m 0 0 h 16 v 16 h -16 z"
         fill-opacity="0.5"
         id="path69" />
    </g>
  </mask>
  <clipPath
     id="s">
    <path
       d="m 0 0 h 1600 v 1200 h -1600 z"
       id="path74" />
  </clipPath>
  <g
     clip-path="url(#c)"
     mask="url(#b)"
     transform="matrix(1 0 0 1 -36 -756)"
     id="g79">
    <path
       d="m 562.460938 212.058594 h 10.449218 c -1.183594 0.492187 -1.296875 2.460937 0 3 h -10.449218 z m 0 0"
       fill="#2e3436"
       id="path77" />
  </g>
  <g
     clip-path="url(#e)"
     mask="url(#d)"
     transform="matrix(1 0 0 1 -36 -756)"
     id="g83">
    <path
       d="m 16 748 h 1 v 1 h -1 z m 0 0"
       fill="#2e3436"
       fill-rule="evenodd"
       id="path81" />
  </g>
  <g
     clip-path="url(#g)"
     mask="url(#f)"
     transform="matrix(1 0 0 1 -36 -756)"
     id="g87">
    <path
       d="m 17 747 h 1 v 1 h -1 z m 0 0"
       fill="#2e3436"
       fill-rule="evenodd"
       id="path85" />
  </g>
  <g
     clip-path="url(#i)"
     mask="url(#h)"
     transform="matrix(1 0 0 1 -36 -756)"
     id="g91">
    <path
       d="m 18 750 h 1 v 1 h -1 z m 0 0"
       fill="#2e3436"
       fill-rule="evenodd"
       id="path89" />
  </g>
  <g
     clip-path="url(#k)"
     mask="url(#j)"
     transform="matrix(1 0 0 1 -36 -756)"
     id="g95">
    <path
       d="m 16 750 h 1 v 1 h -1 z m 0 0"
       fill="#2e3436"
       fill-rule="evenodd"
       id="path93" />
  </g>
  <g
     clip-path="url(#m)"
     mask="url(#l)"
     transform="matrix(1 0 0 1 -36 -756)"
     id="g99">
    <path
       d="m 17 751 h 1 v 1 h -1 z m 0 0"
       fill="#2e3436"
       fill-rule="evenodd"
       id="path97" />
  </g>
  <g
     clip-path="url(#o)"
     mask="url(#n)"
     transform="matrix(1 0 0 1 -36 -756)"
     id="g103">
    <path
       d="m 19 751 h 1 v 1 h -1 z m 0 0"
       fill="#2e3436"
       fill-rule="evenodd"
       id="path101" />
  </g>
  <g
     clip-path="url(#q)"
     mask="url(#p)"
     transform="matrix(1 0 0 1 -36 -756)"
     id="g111">
    <path
       d="m 136 776 v 7 h 7 v -7 z m 0 0"
       fill="#2e3436"
       id="path109" />
  </g>
  <g
     clip-path="url(#s)"
     mask="url(#r)"
     transform="matrix(1 0 0 1 -36 -756)"
     id="g115">
    <path
       d="m 219 758 h 3 v 12 h -3 z m 0 0"
       fill="#2e3436"
       id="path113" />
  </g>
  <path
     id="path305"
     style="fill:#ffffff;fill-opacity:1;fill-rule:evenodd;stroke:none;stroke-width:1.0068;stroke-opacity:1"
     d="m 8.0273438,1.052734 a 6.9662728,6.9662728 0 0 0 -6.9667969,6.964844 6.9662728,6.9662728 0 0 0 6.9667969,6.966797 6.9662728,6.9662728 0 0 0 3.5292972,-0.962891 6.9662728,6.9662728 0 0 0 0.002,-0.002 6.9662728,6.9662728 0 0 0 3.433594,-6.001953 6.9662728,6.9662728 0 0 0 -6.9648442,-6.964844 z" />
  <rect
     style="fill:#000000;fill-opacity:1;stroke:none;stroke-width:0.47136;stroke-opacity:1"
     id="rect12690"
     width="1.2609783"
     height="1.2609783"
     x="-0.62064087"
     y="4.7450037"
     transform="rotate(-45)" />
  <rect
     style="fill:#000000;fill-opacity:1;stroke:none;stroke-width:0.47136;stroke-opacity:1"
     id="rect13288"
     width="1.2609783"
     height="1.2609783"
     x="-1.8816192"
     y="6.0059819"
     transform="rotate(-45)"
     inkscape:transform-center-x="0.1965332"
     inkscape:transform-center-y="0.27557373" />
  <rect
     style="fill:#000000;fill-opacity:1;stroke:none;stroke-width:0.47136;stroke-opacity:1"
     id="rect13290"
     width="1.2609783"
     height="1.2609783"
     x="0.64033741"
     y="6.0059819"
     transform="rotate(-45)"
     inkscape:transform-center-x="0.1965332"
     inkscape:transform-center-y="0.27557373" />
  <rect
     style="fill:#000000;fill-opacity:1;stroke:none;stroke-width:0.47136;stroke-opacity:1"
     id="rect13306"
     width="1.2609783"
     height="1.2609783"
     x="1.9013157"
     y="7.2669601"
     transform="rotate(-45)"
     inkscape:transform-center-x="0.1965332"
     inkscape:transform-center-y="0.27557373" />
  <rect
     style="fill:#000000;fill-opacity:1;stroke:none;stroke-width:0.47136;stroke-opacity:1"
     id="rect13308"
     width="1.2609783"
     height="1.2609783"
     x="0.64033735"
     y="8.5279388"
     transform="rotate(-45)"
     inkscape:transform-center-x="0.1965332"
     inkscape:transform-center-y="0.27557373" />
  <rect
     style="fill:#000000;fill-opacity:1;stroke:none;stroke-width:0.47136;stroke-opacity:1"
     id="rect13324"
     width="1.2609783"
     height="1.2609783"
     x="-0.62064087"
     y="7.2669601"
     transform="rotate(-45)"
     inkscape:transform-center-x="0.1965332"
     inkscape:transform-center-y="0.27557373" />
  <rect
     style="fill:#000000;fill-opacity:1;stroke:none;stroke-width:0.47136;stroke-opacity:1"
     id="rect13326"
     width="1.2609783"
     height="1.2609783"
     x="-3.1425972"
     y="7.2669601"
     transform="rotate(-45)"
     inkscape:transform-center-x="0.1965332"
     inkscape:transform-center-y="0.27557373" />
  <rect
     style="fill:#000000;fill-opacity:1;stroke:none;stroke-width:0.47136;stroke-opacity:1"
     id="rect13328"
     width="1.2609783"
     height="1.2609783"
     x="-4.4035759"
     y="6.0059814"
     transform="rotate(-45)"
     inkscape:transform-center-x="0.1965332"
     inkscape:transform-center-y="0.27557373" />
  <rect
     style="fill:#000000;fill-opacity:1;stroke:none;stroke-width:0.47136;stroke-opacity:1"
     id="rect13330"
     width="1.2609783"
     height="1.2609783"
     x="-3.1425972"
     y="4.7450037"
     transform="rotate(-45)"
     inkscape:transform-center-x="0.1965332"
     inkscape:transform-center-y="0.27557373" />
  <rect
     style="fill:#000000;fill-opacity:1;stroke:none;stroke-width:0.47136;stroke-opacity:1"
     id="rect13332"
     width="1.2609783"
     height="1.2609783"
     x="1.9013157"
     y="4.7450037"
     transform="rotate(-45)"
     inkscape:transform-center-x="0.1965332"
     inkscape:transform-center-y="0.27557373" />
  <rect
     style="fill:#000000;fill-opacity:1;stroke:none;stroke-width:0.47136;stroke-opacity:1"
     id="rect13334"
     width="1.2609783"
     height="1.2609783"
     x="3.1622939"
     y="6.0059819"
     transform="rotate(-45)"
     inkscape:transform-center-x="0.1965332"
     inkscape:transform-center-y="0.27557373" />
  <rect
     style="fill:#000000;fill-opacity:1;stroke:none;stroke-width:0.47136;stroke-opacity:1"
     id="rect13336"
     width="1.2609783"
     height="1.2609783"
     x="4.4232721"
     y="7.2669601"
     transform="rotate(-45)"
     inkscape:transform-center-x="0.1965332"
     inkscape:transform-center-y="0.27557373" />
  <rect
     style="fill:#000000;fill-opacity:1;stroke:none;stroke-width:0.47136;stroke-opacity:1"
     id="rect13338"
     width="1.2609783"
     height="1.2609783"
     x="3.1622939"
     y="8.5279388"
     transform="rotate(-45)"
     inkscape:transform-center-x="0.1965332"
     inkscape:transform-center-y="0.27557373" />
  <rect
     style="fill:#000000;fill-opacity:1;stroke:none;stroke-width:0.47136;stroke-opacity:1"
     id="rect13340"
     width="1.2609783"
     height="1.2609783"
     x="1.9013157"
     y="9.7889175"
     transform="rotate(-45)"
     inkscape:transform-center-x="0.1965332"
     inkscape:transform-center-y="0.27557373" />
  <rect
     style="fill:#000000;fill-opacity:1;stroke:none;stroke-width:0.47136;stroke-opacity:1"
     id="rect13342"
     width="1.2609783"
     height="1.2609783"
     x="-1.8816192"
     y="8.5279388"
     transform="rotate(-45)"
     inkscape:transform-center-x="0.1965332"
     inkscape:transform-center-y="0.27557373" />
  <rect
     style="fill:#000000;fill-opacity:1;stroke:none;stroke-width:0.47136;stroke-opacity:1"
     id="rect13344"
     width="1.2609783"
     height="1.2609783"
     x="-4.4035759"
     y="8.5279388"
     transform="rotate(-45)"
     inkscape:transform-center-x="0.1965332"
     inkscape:transform-center-y="0.27557373" />
  <rect
     style="fill:#000000;fill-opacity:1;stroke:none;stroke-width:0.47136;stroke-opacity:1"
     id="rect13346"
     width="1.2609783"
     height="1.2609783"
     x="-5.6645541"
     y="7.2669601"
     transform="rotate(-45)"
     inkscape:transform-center-x="0.1965332"
     inkscape:transform-center-y="0.27557373" />
  <rect
     style="fill:#000000;fill-opacity:1;stroke:none;stroke-width:0.47136;stroke-opacity:1"
     id="rect13348"
     width="1.2609783"
     height="1.2609783"
     x="-5.6645541"
     y="9.7889175"
     transform="rotate(-45)"
     inkscape:transform-center-x="0.1965332"
     inkscape:transform-center-y="0.27557373" />
  <path
     id="rect13350"
     style="fill:#000000;fill-opacity:1;stroke:none;stroke-width:0.47136;stroke-opacity:1"
     inkscape:transform-center-x="0.1965332"
     inkscape:transform-center-y="0.27557373"
     d="m 3.8088236,11.819203 -0.8925781,0.890624 0.8925781,0.892579 0.890625,-0.892579 z" />
  <rect
     style="fill:#000000;fill-opacity:1;stroke:none;stroke-width:0.47136;stroke-opacity:1"
     id="rect13352"
     width="1.2609783"
     height="1.2609783"
     x="-6.9255319"
     y="8.5279388"
     transform="rotate(-45)"
     inkscape:transform-center-x="0.1965332"
     inkscape:transform-center-y="0.27557373" />
  <rect
     style="fill:#000000;fill-opacity:1;stroke:none;stroke-width:0.47136;stroke-opacity:1"
     id="rect13354"
     width="1.2609783"
     height="1.2609783"
     x="-3.1425972"
     y="9.7889175"
     transform="rotate(-45)"
     inkscape:transform-center-x="0.1965332"
     inkscape:transform-center-y="0.27557373" />
  <rect
     style="fill:#000000;fill-opacity:1;stroke:none;stroke-width:0.47136;stroke-opacity:1"
     id="rect13356"
     width="1.2609783"
     height="1.2609783"
     x="-0.62064111"
     y="9.7889175"
     transform="rotate(-45)"
     inkscape:transform-center-x="0.1965332"
     inkscape:transform-center-y="0.27557373" />
  <rect
     style="fill:#000000;fill-opacity:1;stroke:none;stroke-width:0.47136;stroke-opacity:1"
     id="rect13358"
     width="1.2609783"
     height="1.2609783"
     x="4.4232721"
     y="9.7889175"
     transform="rotate(-45)"
     inkscape:transform-center-x="0.1965332"
     inkscape:transform-center-y="0.27557373" />
  <rect
     style="fill:#000000;fill-opacity:1;stroke:none;stroke-width:0.47136;stroke-opacity:1"
     id="rect13360"
     width="1.2609783"
     height="1.2609783"
     x="5.6842504"
     y="8.5279388"
     transform="rotate(-45)"
     inkscape:transform-center-x="0.1965332"
     inkscape:transform-center-y="0.27557373" />
  <rect
     style="fill:#000000;fill-opacity:1;stroke:none;stroke-width:0.47136;stroke-opacity:1"
     id="rect13362"
     width="1.2609783"
     height="1.2609783"
     x="5.6842504"
     y="11.049896"
     transform="rotate(-45)"
     inkscape:transform-center-x="0.1965332"
     inkscape:transform-center-y="0.27557373" />
  <rect
     style="fill:#000000;fill-opacity:1;stroke:none;stroke-width:0.47136;stroke-opacity:1"
     id="rect13364"
     width="1.2609783"
     height="1.2609783"
     x="3.1622939"
     y="11.049896"
     transform="rotate(-45)"
     inkscape:transform-center-x="0.1965332"
     inkscape:transform-center-y="0.27557373" />
  <rect
     style="fill:#000000;fill-opacity:1;stroke:none;stroke-width:0.47136;stroke-opacity:1"
     id="rect13366"
     width="1.2609783"
     height="1.2609783"
     x="4.4232721"
     y="12.310875"
     transform="rotate(-45)"
     inkscape:transform-center-x="0.1965332"
     inkscape:transform-center-y="0.27557373" />
  <path
     id="rect13368"
     style="fill:#000000;fill-opacity:1;stroke:none;stroke-width:0.47136;stroke-opacity:1"
     inkscape:transform-center-x="0.1965332"
     inkscape:transform-center-y="0.27557373"
     d="m 14.50023,4.694202 -0.884765,0.8828125 0.892578,0.8925781 0.380859,-0.3828125 c -10e-4,-0.039878 0.0049,-0.016629 -0.0098,-0.064453 -0.04108,-0.037873 -0.01268,-0.2062078 -0.01168,-0.2617188 -2e-6,-6.51e-4 -10e-6,-0.0013 0,-0.00195 -0.01223,-0.017328 -0.02303,-0.032939 -0.03711,-0.052734 C 14.751362,5.5948896 14.67724,5.4822167 14.59203,5.3758462 14.57931,5.3599712 14.56394,5.3461022 14.55297,5.3289712 14.5014,5.2484032 14.49693,5.2333932 14.47289,5.1649087 c -0.0025,-0.00291 -0.0058,-0.00766 -0.0078,-0.00977 -0.02977,-0.030496 -0.04793,-0.077439 -0.06641,-0.1152344 -0.02303,-0.067524 -0.0307,-0.1494272 0.02344,-0.2070312 0.02002,-0.021296 0.04645,-0.0339 0.07031,-0.050781 0.01357,-0.0096 0.0251,-0.016446 0.03516,-0.021484 -0.0018,-0.00326 -0.0044,-0.0063 -0.0059,-0.00977 -0.0059,-0.013935 -0.0096,-0.026242 -0.01172,-0.037109 0,0 0,-0.00195 0,-0.00195 -0.0037,-0.00564 -0.0069,-0.011833 -0.0098,-0.017578 z m 0.06836,0.1660156 c -0.03404,0.1328137 -0.116155,0.3262979 0.0332,0.2148438 0.01358,-0.010132 0.02918,-0.017659 0.04297,-0.027344 -0.0031,-0.00786 -0.0069,-0.015493 -0.0098,-0.023437 -0.02302,-0.08172 -0.01138,-0.04452 -0.03711,-0.109375 -0.01145,-0.018336 -0.02112,-0.036848 -0.0293,-0.054687 z" />
  <rect
     style="fill:#000000;fill-opacity:1;stroke:none;stroke-width:0.47136;stroke-opacity:1"
     id="rect13370"
     width="1.2609783"
     height="1.2609783"
     x="3.1622939"
     y="13.571854"
     transform="rotate(-45)"
     inkscape:transform-center-x="0.1965332"
     inkscape:transform-center-y="0.27557373" />
  <rect
     style="fill:#000000;fill-opacity:1;stroke:none;stroke-width:0.47136;stroke-opacity:1"
     id="rect13372"
     width="1.2609783"
     height="1.2609783"
     x="1.9013157"
     y="12.310875"
     transform="rotate(-45)"
     inkscape:transform-center-x="0.1965332"
     inkscape:transform-center-y="0.27557373" />
  <rect
     style="fill:#000000;fill-opacity:1;stroke:none;stroke-width:0.47136;stroke-opacity:1"
     id="rect13374"
     width="1.2609783"
     height="1.2609783"
     x="0.64033735"
     y="11.049896"
     transform="rotate(-45)"
     inkscape:transform-center-x="0.1965332"
     inkscape:transform-center-y="0.27557373" />
  <rect
     style="fill:#000000;fill-opacity:1;stroke:none;stroke-width:0.47136;stroke-opacity:1"
     id="rect13376"
     width="1.2609783"
     height="1.2609783"
     x="-1.881619"
     y="11.049896"
     transform="rotate(-45)"
     inkscape:transform-center-x="0.1965332"
     inkscape:transform-center-y="0.27557373" />
  <rect
     style="fill:#000000;fill-opacity:1;stroke:none;stroke-width:0.47136;stroke-opacity:1"
     id="rect13378"
     width="1.2609783"
     height="1.2609783"
     x="-4.4035759"
     y="11.049896"
     transform="rotate(-45)"
     inkscape:transform-center-x="0.1965332"
     inkscape:transform-center-y="0.27557373" />
  <path
     id="rect13380"
     style="fill:#000000;fill-opacity:1;stroke:none;stroke-width:0.47136;stroke-opacity:1"
     inkscape:transform-center-x="0.1965332"
     inkscape:transform-center-y="0.27557373"
     d="m 5.5920268,11.819203 -0.8925782,0.890624 0.8925782,0.892579 0.890625,-0.892579 z" />
  <path
     id="rect13382"
     style="fill:#000000;fill-opacity:1;stroke:none;stroke-width:0.47136;stroke-opacity:1"
     inkscape:transform-center-x="0.1965332"
     inkscape:transform-center-y="0.27557373"
     d="m 5.5920268,13.602406 -0.8925782,0.890625 0.080078,0.08008 c 0.024658,0.01142 0.048008,0.02471 0.072266,0.03711 0.0099,0.0034 0.0175,0.0069 0.025391,0.01172 0.00414,0.0025 0.00842,0.0049 0.011719,0.0078 0.065069,0.03543 0.1285378,0.0728 0.1894531,0.115235 0.011716,0.0066 0.023478,0.01285 0.035156,0.01953 0.03302,0.01889 0.056668,0.03688 0.091797,0.05078 0.00222,1.29e-4 0.00563,-1.18e-4 0.00781,0 0.063955,0.0043 0.1273566,0.0046 0.1914063,0.0039 0.014764,-0.03191 0.030686,-0.04943 0.052734,-0.05274 0.022499,-0.0034 0.0514,0.0083 0.087891,0.03125 0.03653,-7.04e-4 0.073453,0.0071 0.1113281,0.01758 0.00138,3.83e-4 0.00253,0.0016 0.00391,0.002 0.049619,0.01409 0.1006761,0.03239 0.1503906,0.04883 0.05047,0.01844 0.1018636,0.03357 0.1503906,0.05664 0.012893,0.0061 0.034965,0.01782 0.060547,0.03125 l 0.4609375,-0.460937 z" />
  <path
     id="rect13384"
     style="fill:#000000;fill-opacity:1;stroke:none;stroke-width:0.47136;stroke-opacity:1"
     inkscape:transform-center-x="0.1965332"
     inkscape:transform-center-y="0.27557373"
     d="m 7.3752299,11.819203 -0.8925781,0.890624 0.8925781,0.892579 0.890625,-0.892579 z" />
  <rect
     style="fill:#000000;fill-opacity:1;stroke:none;stroke-width:0.47136;stroke-opacity:1"
     id="rect13386"
     width="1.2609783"
     height="1.2609783"
     x="-3.1269722"
     y="12.48275"
     transform="rotate(-45)"
     inkscape:transform-center-x="0.1965332"
     inkscape:transform-center-y="0.27557373" />
  <rect
     style="fill:#000000;fill-opacity:1;stroke:none;stroke-width:0.47136;stroke-opacity:1"
     id="rect13388"
     width="1.2609783"
     height="1.2609783"
     x="-3.1425972"
     y="12.310875"
     transform="rotate(-45)"
     inkscape:transform-center-x="0.1965332"
     inkscape:transform-center-y="0.27557373" />
  <rect
     style="fill:#000000;fill-opacity:1;stroke:none;stroke-width:0.47136;stroke-opacity:1"
     id="rect13390"
     width="1.2609783"
     height="1.2609783"
     x="-0.62064111"
     y="12.310875"
     transform="rotate(-45)"
     inkscape:transform-center-x="0.1965332"
     inkscape:transform-center-y="0.27557373" />
  <rect
     style="fill:#000000;fill-opacity:1;stroke:none;stroke-width:0.47136;stroke-opacity:1"
     id="rect13392"
     width="1.2609783"
     height="1.2609783"
     x="0.64033735"
     y="13.571854"
     transform="rotate(-45)"
     inkscape:transform-center-x="0.1965332"
     inkscape:transform-center-y="0.27557373" />
  <rect
     style="fill:#000000;fill-opacity:1;stroke:none;stroke-width:0.47136;stroke-opacity:1"
     id="rect13394"
     width="1.2609783"
     height="1.2609783"
     x="-1.8816187"
     y="13.571854"
     transform="rotate(-45)"
     inkscape:transform-center-x="0.1965332"
     inkscape:transform-center-y="0.27557373" />
  <path
     id="rect13396"
     style="fill:#000000;fill-opacity:1;stroke:none;stroke-width:0.47136;stroke-opacity:1"
     inkscape:transform-center-x="0.1965332"
     inkscape:transform-center-y="0.27557373"
     d="m 9.158433,11.819203 -0.8925781,0.890624 0.8925781,0.892579 0.890626,-0.892579 z" />
  <path
     id="rect13398"
     style="fill:#000000;fill-opacity:1;stroke:none;stroke-width:0.47136;stroke-opacity:1"
     inkscape:transform-center-x="0.1965332"
     inkscape:transform-center-y="0.27557373"
     d="m 7.3752299,13.602406 -0.8925781,0.890625 0.4960937,0.496093 c 0.076287,-2.31e-4 0.1522288,5.35e-4 0.2285157,0 0.1866779,-0.0012 0.3738929,5.69e-4 0.5605468,0.0039 l 0.4980469,-0.5 z" />
  <path
     id="rect13400"
     style="fill:#000000;fill-opacity:1;stroke:none;stroke-width:0.47136;stroke-opacity:1"
     inkscape:transform-center-x="0.1965332"
     inkscape:transform-center-y="0.27557373"
     d="m 9.158433,13.602406 -0.8925781,0.890625 0.4023437,0.402343 c 0.024021,-0.0013 0.048046,-0.0024 0.072266,-0.0039 0.036759,-4.19e-4 0.074568,-0.0021 0.1113281,-0.002 0.040164,2e-4 0.078994,7.06e-4 0.1191406,0.002 0.022568,7e-4 0.048365,-0.0066 0.068359,0.0039 0.021529,0.01129 0.047934,0.02113 0.072266,0.0332 0.075274,0.0015 0.1402585,0.0061 0.2246094,0 0.026378,-0.0019 0.052055,-0.0093 0.078125,-0.01367 0.021599,-0.0037 0.044777,-0.0082 0.066406,-0.01172 0.049861,-0.01978 0.1320373,-0.05241 0.1953126,-0.03711 l 0.3730477,-0.373046 z m 0.3632813,1.328125 c -0.00373,0.0043 -0.00708,0.01549 -0.011719,0.0293 0.018551,-0.02581 0.018429,-0.037 0.011719,-0.0293 z" />
  <path
     id="rect13402"
     style="fill:#000000;fill-opacity:1;stroke:none;stroke-width:0.47136;stroke-opacity:1"
     inkscape:transform-center-x="0.1965332"
     inkscape:transform-center-y="0.27557373"
     d="m 10.941637,11.819203 -0.892578,0.890624 0.892578,0.892579 0.890625,-0.892579 z" />
  <rect
     style="fill:#000000;fill-opacity:1;stroke:none;stroke-width:0.47136;stroke-opacity:1"
     id="rect13404"
     width="1.2609783"
     height="1.2609783"
     x="-0.62064111"
     y="14.832832"
     transform="rotate(-45)"
     inkscape:transform-center-x="0.1965332"
     inkscape:transform-center-y="0.27557373" />
  <rect
     style="fill:#000000;fill-opacity:1;stroke:none;stroke-width:0.47136;stroke-opacity:1"
     id="rect13406"
     width="1.2609783"
     height="1.2609783"
     x="1.9013156"
     y="14.832832"
     transform="rotate(-45)"
     inkscape:transform-center-x="0.1965332"
     inkscape:transform-center-y="0.27557373" />
  <path
     id="rect13408"
     style="fill:#000000;fill-opacity:1;stroke:none;stroke-width:0.47136;stroke-opacity:1"
     inkscape:transform-center-x="0.1965332"
     inkscape:transform-center-y="0.27557373"
     d="m 14.508043,6.4695926 -0.892578,0.890625 0.892578,0.8925781 0.548828,-0.5507812 c -7.64e-4,-0.048044 -10e-4,-0.096181 0.002,-0.1445312 -0.02905,-0.032641 -0.05335,-0.080938 -0.06641,-0.1445313 -0.0163,-0.079416 -0.0363,-0.1603055 -0.0332,-0.2421875 0.002,-0.052577 0.01012,-0.103695 0.01172,-0.15625 -5e-5,-0.01072 0.0019,-0.020698 0,-0.03125 -0.0041,-0.02306 -0.01095,-0.04575 -0.01758,-0.068359 z" />
  <path
     id="rect13410"
     style="fill:#000000;fill-opacity:1;stroke:none;stroke-width:0.47136;stroke-opacity:1"
     inkscape:transform-center-x="0.1965332"
     inkscape:transform-center-y="0.27557373"
     d="m 14.508043,8.2527957 -0.892578,0.890625 0.892578,0.8925783 0.515625,-0.5175783 c -0.02625,-0.044555 -0.03764,-0.1090324 -0.01953,-0.1933593 0.031,-0.1443823 0.04806,-0.2910661 0.06641,-0.4375 0.0034,-0.024198 0.0069,-0.041907 0.0098,-0.0625 z" />
  <rect
     style="fill:#000000;fill-opacity:1;stroke:none;stroke-width:0.47136;stroke-opacity:1"
     id="rect13412"
     width="1.2609783"
     height="1.2609783"
     x="0.64033735"
     y="16.093811"
     transform="rotate(-45)"
     inkscape:transform-center-x="0.1965332"
     inkscape:transform-center-y="0.27557373" />
  <path
     id="rect13414"
     style="fill:#000000;fill-opacity:1;stroke:none;stroke-width:0.47136;stroke-opacity:1"
     inkscape:transform-center-x="0.1965332"
     inkscape:transform-center-y="0.27557373"
     d="m 12.72484,11.819203 -0.892578,0.890624 0.759765,0.759766 c 0.08725,0.01083 0.138673,0.06274 0.140625,0.125 l 0.882813,-0.884766 z" />
  <path
     id="rect13416"
     style="fill:#000000;fill-opacity:1;stroke:none;stroke-width:0.47136;stroke-opacity:1"
     inkscape:transform-center-x="0.1965332"
     inkscape:transform-center-y="0.27557373"
     d="m 11.074219,13.712891 -0.892578,0.890625 0.169921,0.169922 c 0.0229,-0.01886 0.04196,-0.03498 0.06836,-0.05664 0.08059,-0.06989 0.170165,-0.105071 0.265625,-0.144531 0.02918,-0.0121 0.05926,-0.02748 0.09375,-0.01758 0.01,0.0029 0.02002,0.0052 0.0293,0.0098 0.02157,-0.01402 0.0422,-0.02811 0.06445,-0.04101 0.04385,-0.02543 0.09583,-0.03715 0.136719,-0.06836 0.05828,-0.03427 0.109292,-0.07892 0.169922,-0.109375 0.05728,-0.02474 -0.01557,0.01 0.07031,-0.07226 0.02882,-0.0276 0.06079,-0.05174 0.09375,-0.07422 0.0075,-0.0051 0.01844,-0.0045 0.02734,-0.0059 0.008,-0.0013 0.01764,0.0036 0.02344,-0.002 0.01502,-0.01437 0.02055,-0.0349 0.03125,-0.05273 0.01821,-0.01329 0.02944,-0.01857 0.04492,-0.0293 z" />
  <path
     id="rect13418"
     style="fill:#000000;fill-opacity:1;stroke:none;stroke-width:0.47136;stroke-opacity:1"
     inkscape:transform-center-x="0.1965332"
     inkscape:transform-center-y="0.27557373"
     d="m 14.640625,10.146484 -0.892578,0.890625 0.472656,0.472657 c 0.01333,-0.03347 0.02805,-0.06912 0.04687,-0.115235 0.06481,-0.121061 0.156763,-0.215687 0.251953,-0.310547 -0.203466,-0.0072 -0.007,-0.102905 0.128907,-0.15625 -0.0047,-0.01688 0.06752,-0.183923 0.08008,-0.21289 0.03986,-0.07452 0.0857,-0.136034 0.15039,-0.189453 0.0046,-0.02361 0.01571,-0.0453 0.03906,-0.0625 0.0078,-0.0057 0.01548,-0.01057 0.02344,-0.01563 z m 0.214844,0.408204 c 0.0044,0.0089 0.02272,0.0477 0.04883,0.136718 -0.01121,-0.04299 -0.0278,-0.08939 -0.0293,-0.132812 -0.01075,0.0033 -0.01745,-0.002 -0.01953,-0.0039 z m -0.253907,0.439453 c -0.0011,0.0038 -9.01e-4,0.0079 -0.002,0.01172 9.09e-4,-0.001 0.0011,-0.0029 0.002,-0.0039 0.0018,-0.0021 7.78e-4,-0.01051 0,-0.0078 z m -0.07617,0.589843 c -0.02432,0.05696 -0.04762,0.116209 -0.05859,0.171875 -1.2e-4,6.08e-4 1.17e-4,0.0013 0,0.002 l 0.0039,0.002 c 0.0049,-0.01242 0.0074,-0.02175 0.01563,-0.04297 0.01053,-0.02716 0.02305,-0.05211 0.03125,-0.08008 0.0026,-0.0173 0.0052,-0.03543 0.0078,-0.05274 z" />
  <path
     id="circle13438"
     style="fill:none;fill-opacity:1;fill-rule:evenodd;stroke:#ffffff;stroke-width:1.0068;stroke-opacity:1"
     d="m 8.0273438,1.052734 a 6.9662728,6.9662728 0 0 0 -6.9667969,6.964844 6.9662728,6.9662728 0 0 0 6.9667969,6.966797 6.9662728,6.9662728 0 0 0 3.5292972,-0.962891 6.9662728,6.9662728 0 0 0 0.002,-0.002 6.9662728,6.9662728 0 0 0 3.433594,-6.001953 6.9662728,6.9662728 0 0 0 -6.9648442,-6.964844 z" />
</svg>
