<?xml version="1.0" encoding="UTF-8" standalone="no"?>
<svg
   height="16px"
   viewBox="0 0 16 16"
   width="16px"
   version="1.1"
   id="svg117"
   sodipodi:docname="location-end.svg"
   inkscape:version="1.1.2 (0a00cf5339, 2022-02-04)"
   xmlns:inkscape="http://www.inkscape.org/namespaces/inkscape"
   xmlns:sodipodi="http://sodipodi.sourceforge.net/DTD/sodipodi-0.dtd"
   xmlns="http://www.w3.org/2000/svg"
   xmlns:svg="http://www.w3.org/2000/svg">
  <defs
     id="defs121" />
  <sodipodi:namedview
     id="namedview119"
     pagecolor="#ffffff"
     bordercolor="#666666"
     borderopacity="1.0"
     inkscape:pageshadow="2"
     inkscape:pageopacity="0.0"
     inkscape:pagecheckerboard="0"
     showgrid="false"
     inkscape:zoom="32"
     inkscape:cx="6.75"
     inkscape:cy="9.828125"
     inkscape:window-width="1846"
     inkscape:window-height="1016"
     inkscape:window-x="0"
     inkscape:window-y="0"
     inkscape:window-maximized="1"
     inkscape:current-layer="svg117" />
  <filter
     id="a"
     height="1"
     width="1"
     x="0"
     y="0">
    <feColorMatrix
       in="SourceGraphic"
       type="matrix"
       values="0 0 0 0 1 0 0 0 0 1 0 0 0 0 1 0 0 0 1 0"
       id="feColorMatrix2" />
  </filter>
  <mask
     id="b">
    <g
       filter="url(#a)"
       id="g7">
      <path
         d="m 0 0 h 16 v 16 h -16 z"
         fill-opacity="0.3"
         id="path5" />
    </g>
  </mask>
  <clipPath
     id="c">
    <path
       d="m 0 0 h 1600 v 1200 h -1600 z"
       id="path10" />
  </clipPath>
  <mask
     id="d">
    <g
       filter="url(#a)"
       id="g15">
      <path
         d="m 0 0 h 16 v 16 h -16 z"
         fill-opacity="0.05"
         id="path13" />
    </g>
  </mask>
  <clipPath
     id="e">
    <path
       d="m 0 0 h 1600 v 1200 h -1600 z"
       id="path18" />
  </clipPath>
  <mask
     id="f">
    <g
       filter="url(#a)"
       id="g23">
      <path
         d="m 0 0 h 16 v 16 h -16 z"
         fill-opacity="0.05"
         id="path21" />
    </g>
  </mask>
  <clipPath
     id="g">
    <path
       d="m 0 0 h 1600 v 1200 h -1600 z"
       id="path26" />
  </clipPath>
  <mask
     id="h">
    <g
       filter="url(#a)"
       id="g31">
      <path
         d="m 0 0 h 16 v 16 h -16 z"
         fill-opacity="0.05"
         id="path29" />
    </g>
  </mask>
  <clipPath
     id="i">
    <path
       d="m 0 0 h 1600 v 1200 h -1600 z"
       id="path34" />
  </clipPath>
  <mask
     id="j">
    <g
       filter="url(#a)"
       id="g39">
      <path
         d="m 0 0 h 16 v 16 h -16 z"
         fill-opacity="0.05"
         id="path37" />
    </g>
  </mask>
  <clipPath
     id="k">
    <path
       d="m 0 0 h 1600 v 1200 h -1600 z"
       id="path42" />
  </clipPath>
  <mask
     id="l">
    <g
       filter="url(#a)"
       id="g47">
      <path
         d="m 0 0 h 16 v 16 h -16 z"
         fill-opacity="0.05"
         id="path45" />
    </g>
  </mask>
  <clipPath
     id="m">
    <path
       d="m 0 0 h 1600 v 1200 h -1600 z"
       id="path50" />
  </clipPath>
  <mask
     id="n">
    <g
       filter="url(#a)"
       id="g55">
      <path
         d="m 0 0 h 16 v 16 h -16 z"
         fill-opacity="0.05"
         id="path53" />
    </g>
  </mask>
  <clipPath
     id="o">
    <path
       d="m 0 0 h 1600 v 1200 h -1600 z"
       id="path58" />
  </clipPath>
  <mask
     id="p">
    <g
       filter="url(#a)"
       id="g63">
      <path
         d="m 0 0 h 16 v 16 h -16 z"
         fill-opacity="0.3"
         id="path61" />
    </g>
  </mask>
  <clipPath
     id="q">
    <path
       d="m 0 0 h 1600 v 1200 h -1600 z"
       id="path66" />
  </clipPath>
  <mask
     id="r">
    <g
       filter="url(#a)"
       id="g71">
      <path
         d="m 0 0 h 16 v 16 h -16 z"
         fill-opacity="0.5"
         id="path69" />
    </g>
  </mask>
  <clipPath
     id="s">
    <path
       d="m 0 0 h 1600 v 1200 h -1600 z"
       id="path74" />
  </clipPath>
  <g
     clip-path="url(#c)"
     mask="url(#b)"
     transform="matrix(1 0 0 1 -36 -756)"
     id="g79">
    <path
       d="m 562.460938 212.058594 h 10.449218 c -1.183594 0.492187 -1.296875 2.460937 0 3 h -10.449218 z m 0 0"
       fill="#2e3436"
       id="path77" />
  </g>
  <g
     clip-path="url(#e)"
     mask="url(#d)"
     transform="matrix(1 0 0 1 -36 -756)"
     id="g83">
    <path
       d="m 16 748 h 1 v 1 h -1 z m 0 0"
       fill="#2e3436"
       fill-rule="evenodd"
       id="path81" />
  </g>
  <g
     clip-path="url(#g)"
     mask="url(#f)"
     transform="matrix(1 0 0 1 -36 -756)"
     id="g87">
    <path
       d="m 17 747 h 1 v 1 h -1 z m 0 0"
       fill="#2e3436"
       fill-rule="evenodd"
       id="path85" />
  </g>
  <g
     clip-path="url(#i)"
     mask="url(#h)"
     transform="matrix(1 0 0 1 -36 -756)"
     id="g91">
    <path
       d="m 18 750 h 1 v 1 h -1 z m 0 0"
       fill="#2e3436"
       fill-rule="evenodd"
       id="path89" />
  </g>
  <g
     clip-path="url(#k)"
     mask="url(#j)"
     transform="matrix(1 0 0 1 -36 -756)"
     id="g95">
    <path
       d="m 16 750 h 1 v 1 h -1 z m 0 0"
       fill="#2e3436"
       fill-rule="evenodd"
       id="path93" />
  </g>
  <g
     clip-path="url(#m)"
     mask="url(#l)"
     transform="matrix(1 0 0 1 -36 -756)"
     id="g99">
    <path
       d="m 17 751 h 1 v 1 h -1 z m 0 0"
       fill="#2e3436"
       fill-rule="evenodd"
       id="path97" />
  </g>
  <g
     clip-path="url(#o)"
     mask="url(#n)"
     transform="matrix(1 0 0 1 -36 -756)"
     id="g103">
    <path
       d="m 19 751 h 1 v 1 h -1 z m 0 0"
       fill="#2e3436"
       fill-rule="evenodd"
       id="path101" />
  </g>
  <g
     clip-path="url(#q)"
     mask="url(#p)"
     transform="matrix(1 0 0 1 -36 -756)"
     id="g111">
    <path
       d="m 136 776 v 7 h 7 v -7 z m 0 0"
       fill="#2e3436"
       id="path109" />
  </g>
  <g
     clip-path="url(#s)"
     mask="url(#r)"
     transform="matrix(1 0 0 1 -36 -756)"
     id="g115">
    <path
       d="m 219 758 h 3 v 12 h -3 z m 0 0"
       fill="#2e3436"
       id="path113" />
  </g>
  <path
     id="path305"
     style="fill:#ffffff;fill-opacity:1;fill-rule:evenodd;stroke:none;stroke-width:1.0068;stroke-opacity:1"
     d="m 8.0273438,1.0527344 a 6.9662728,6.9662728 0 0 0 -6.9667969,6.9648437 6.9662728,6.9662728 0 0 0 6.9667969,6.9667969 6.9662728,6.9662728 0 0 0 3.5292972,-0.962891 6.9662728,6.9662728 0 0 0 0.002,-0.002 6.9662728,6.9662728 0 0 0 3.433594,-6.0019529 6.9662728,6.9662728 0 0 0 -6.9648442,-6.9648437 z" />
  <rect
     style="fill:#000000;fill-opacity:1;stroke:none;stroke-width:0.940191;stroke-opacity:1"
     id="rect13290"
     width="2.5151813"
     height="2.5151813"
     x="-1.2260551"
     y="5.0244551"
     transform="rotate(-45)"
     inkscape:transform-center-x="0.39201043"
     inkscape:transform-center-y="0.54966662" />
  <rect
     style="fill:#000000;fill-opacity:1;stroke:none;stroke-width:0.940191;stroke-opacity:1"
     id="rect16106"
     width="2.5151813"
     height="2.5151813"
     x="-3.7412367"
     y="7.5396361"
     transform="rotate(-45)"
     inkscape:transform-center-x="0.39201069"
     inkscape:transform-center-y="0.54966639" />
  <path
     id="rect16108"
     style="fill:#000000;fill-opacity:1;stroke:none;stroke-width:0.940191;stroke-opacity:1"
     inkscape:transform-center-x="0.39201073"
     inkscape:transform-center-y="0.54966825"
     d="m 1.4907127,6.7819533 c -1.59e-4,0.035908 -0.00207,0.071863 -0.00733,0.1083418 -0.00216,0.014896 -0.00859,0.029218 -0.011017,0.044071 -0.00467,0.028507 -0.00722,0.055834 -0.011018,0.084471 -0.00124,0.095057 -2.551e-4,0.1366772 -0.00919,0.2387193 -0.010328,0.1181587 -0.015063,0.00586 -0.018362,0.1615948 -6.956e-4,0.032748 0.00586,0.064573 0.0055,0.097324 -5.359e-4,0.049464 -0.00497,0.099332 -0.00733,0.1487406 -0.012191,0.050022 -0.025789,0.1074011 -0.038563,0.1560858 -6.501e-4,0.00248 -0.00121,0.00319 -0.00184,0.00551 1.078e-4,0.00122 -1.152e-4,0.00245 0,0.00368 0.00467,0.049613 0.014481,0.099904 0.00734,0.1487406 -0.00257,0.017591 -0.00516,0.024594 -0.00734,0.036726 -8.85e-5,0.017155 -2.9e-6,0.034263 0,0.051417 1.793e-4,0.056331 3.36e-5,0.1126086 0,0.1689398 -1.58e-5,0.060666 1e-7,0.1211286 0,0.1817941 0.025701,0.00388 -0.017376,0.049811 0,0.058761 0.00653,0.00336 3.163e-4,-0.01551 0.00367,-0.022037 0.00102,-0.002 0.00474,0.00342 0.00551,0.00551 0.032793,0.089355 0.026615,0.062534 0.031217,0.1395591 -0.010215,0.080043 -0.00968,0.1601236 -0.00734,0.2405556 0.00121,0.059063 -2.5e-6,0.1190534 0,0.1781214 1.532e-4,0.073283 4.38e-5,0.1454115 0,0.2185201 L 2.6861454,7.9773888 Z M 1.1436515,7.0004734 c 0.00124,0.00767 0.0024,0.012365 0.00368,0.0202 0.00468,0.00179 0.00778,0.00373 0.012854,0.00551 -4.646e-4,-0.00737 -0.00145,-0.014676 -0.00184,-0.022037 -0.00561,-0.0016 -0.00946,-0.00229 -0.01469,-0.00368 z" />
  <rect
     style="fill:#000000;fill-opacity:1;stroke:none;stroke-width:0.940191;stroke-opacity:1"
     id="rect16110"
     width="2.5151813"
     height="2.5151813"
     x="-6.2564178"
     y="10.054824"
     transform="rotate(-45)"
     inkscape:transform-center-x="0.39201073"
     inkscape:transform-center-y="0.54966587" />
  <rect
     style="fill:#000000;fill-opacity:1;stroke:none;stroke-width:0.940191;stroke-opacity:1"
     id="rect16112"
     width="2.5151813"
     height="2.5151813"
     x="-1.2260553"
     y="10.054824"
     transform="rotate(-45)"
     inkscape:transform-center-x="0.39201095"
     inkscape:transform-center-y="0.5496661" />
  <rect
     style="fill:#000000;fill-opacity:1;stroke:none;stroke-width:0.940191;stroke-opacity:1"
     id="rect16114"
     width="2.5151813"
     height="2.5151813"
     x="1.289126"
     y="7.5396361"
     transform="rotate(-45)"
     inkscape:transform-center-x="0.39201074"
     inkscape:transform-center-y="0.54966645" />
  <path
     id="rect16116"
     style="fill:#000000;fill-opacity:1;stroke:none;stroke-width:0.940191;stroke-opacity:1"
     inkscape:transform-center-x="0.39200205"
     inkscape:transform-center-y="0.54967041"
     d="m 9.7120103,0.77502441 c -6.087e-4,0.002445 -0.00121,0.004673 -0.00178,0.00714 0.00299,-5.08e-6 0.00587,3.6e-7 0.00895,0 z M 7.5759831,1.3531973 c -0.00573,0.00579 -0.01135,0.011116 -0.017845,0.01606 -0.00423,0.01025 -0.010181,0.022824 -0.012492,0.026767 0.00414,9.65e-4 0.010512,0.00287 0.017845,0.00357 0.00118,-6.634e-4 0.00238,-0.00111 0.00357,-0.00179 0.025752,-0.014542 0.049457,-0.030437 0.062457,-0.042827 -0.018253,-8.972e-4 -0.035494,-0.00148 -0.053535,-0.00179 z m -0.060672,0.042827 c -0.016633,0.00975 -0.033124,0.018772 -0.048181,0.030336 0.014061,-0.00354 0.017765,-0.00539 0.024983,-0.00714 -0.00665,0.00308 -0.012644,0.00589 -0.021415,0.010707 0.010005,0.00175 0.020303,8.87e-4 0.030336,0 0.019346,-0.00873 0.039743,-0.016966 0.060673,-0.028551 -0.0055,-9.895e-4 -0.010316,-0.00231 -0.01606,-0.00357 -0.00516,0.00794 -0.011038,0.00632 -0.030336,0.012491 3.603e-4,-0.00232 -6.61e-5,-0.00411 0,-0.014276 z m -0.014276,0.033906 c -0.037067,0.016738 -0.065459,0.026662 -0.053535,0.014276 -0.00773,0.00468 -0.014038,0.00828 -0.023199,0.014276 0.00568,-2.174e-4 0.022121,-0.00256 0.033904,-0.00535 -0.079747,0.033617 0.00465,0.00674 -0.1249138,0.041043 -0.043694,0.00142 -0.094206,0.00797 -0.1374054,0.00179 -0.04286,-0.00613 -0.083815,-0.020797 -0.1266982,-0.026767 0.00623,0.00403 0.030804,0.015859 0.049966,0.021415 0.00511,-6.841e-4 0.01027,-0.00307 0.014276,-0.00357 0.00403,0.00246 0.00636,0.00416 0.00713,0.00535 -0.00343,2.889e-4 -0.01274,7.299e-4 -0.021415,-0.00179 -0.00687,9.218e-4 -0.012642,7.143e-4 -0.019628,0.00179 -0.030424,0.00466 -0.060479,0.010358 -0.091009,0.014276 -0.039758,0.00511 -0.074808,0.00932 -0.1088536,0.012491 L 8.0203207,2.6416023 9.223063,1.4406445 c -0.00323,-0.00165 -0.00573,-0.00356 -0.00893,-0.00535 -0.00413,-9.264e-4 -0.00837,-8.352e-4 -0.012492,-0.00179 -0.00825,-0.0019 -0.016897,-0.00453 -0.024983,-0.00714 -0.00122,-9.3e-6 -0.00234,-0.00177 -0.00357,-0.00179 -0.00596,-7.83e-5 -0.011887,2.998e-4 -0.017845,0 -0.006,-3.736e-4 -0.011969,0.0012 -0.017844,0 -0.00378,7.953e-4 -0.011183,0.0014 -0.012492,0.00179 0.00146,4.53e-5 6.538e-4,-6.645e-4 -0.039259,0.00357 -0.014169,-8.04e-4 -0.02884,6.12e-4 -0.042827,-0.00179 -0.020348,-0.00349 -0.040928,-0.00824 -0.060672,-0.014276 -0.00225,-6.875e-4 -0.00546,-0.00281 -0.00893,-0.00357 -0.00121,-2.661e-4 -0.00235,2.853e-4 -0.00357,0 -0.012011,-0.00161 -0.023675,-0.00376 -0.035691,-0.00535 H 8.8376152 8.7590981 8.6234772 8.4289684 8.339744 8.0917007 7.9685714 c -0.04945,1e-7 -0.098661,1.16e-5 -0.1481123,0 -0.035829,-6.82e-5 -0.071239,-4.52e-5 -0.1070689,0 -0.02364,-1.78e-5 -0.047764,-0.00103 -0.071379,-0.00179 -0.022341,0.00224 -0.042257,0.00253 -0.062456,0 -0.024089,0.015016 -0.051229,0.024355 -0.078518,0.026766 z m -0.053535,0.014276 c 0.00773,-0.00468 0.016763,-0.010741 0.023198,-0.014276 -0.0019,-3.316e-4 -0.00347,-0.00135 -0.00535,-0.00179 -0.00608,0.00479 -0.01247,0.010477 -0.017845,0.01606 z" />
  <rect
     style="fill:#000000;fill-opacity:1;stroke:none;stroke-width:0.940191;stroke-opacity:1"
     id="rect16118"
     width="2.5151813"
     height="2.5151813"
     x="3.8043072"
     y="10.054824"
     transform="rotate(-45)"
     inkscape:transform-center-x="0.3920112"
     inkscape:transform-center-y="0.54966633" />
  <rect
     style="fill:#000000;fill-opacity:1;stroke:none;stroke-width:0.940191;stroke-opacity:1"
     id="rect16120"
     width="2.5151813"
     height="2.5151813"
     x="1.289126"
     y="12.570006"
     transform="rotate(-45)"
     inkscape:transform-center-x="0.39201026"
     inkscape:transform-center-y="0.54966694" />
  <rect
     style="fill:#000000;fill-opacity:1;stroke:none;stroke-width:0.940191;stroke-opacity:1"
     id="rect16122"
     width="2.5151813"
     height="2.5151813"
     x="-3.7412367"
     y="12.570006"
     transform="rotate(-45)"
     inkscape:transform-center-x="0.39201019"
     inkscape:transform-center-y="0.54966687" />
  <rect
     style="fill:#000000;fill-opacity:1;stroke:none;stroke-width:0.940191;stroke-opacity:1"
     id="rect16124"
     width="2.5151813"
     height="2.5151813"
     x="-1.2260553"
     y="15.085188"
     transform="rotate(-45)"
     inkscape:transform-center-x="0.39201073"
     inkscape:transform-center-y="0.54966633" />
  <path
     id="rect16126"
     style="fill:#000000;fill-opacity:1;stroke:none;stroke-width:0.940191;stroke-opacity:1"
     inkscape:transform-center-x="0.39201038"
     inkscape:transform-center-y="0.54966631"
     d="M 8.0206073,13.311848 6.7829389,14.551352 H 7.183253 7.5137876 c 0.036595,-0.0019 0.073745,-0.0046 0.1101782,-0.0092 0.042064,0.0014 0.08321,0.0056 0.1248686,0.0092 h 1.5112777 z" />
  <path
     id="rect16128"
     style="fill:#000000;fill-opacity:1;stroke:none;stroke-width:0.940191;stroke-opacity:1"
     inkscape:transform-center-x="0.3920801"
     inkscape:transform-center-y="0.5496627"
     d="m 14.617558,6.7173562 -1.259847,1.2598457 1.150992,1.1492077 c 4.26e-4,-0.00255 -5.26e-4,-0.00427 0,-0.00713 0.0021,-0.010609 0.0083,-0.01956 0.0089,-0.030335 2.74e-4,-0.00428 -0.0067,-0.00824 -0.0071,-0.012492 -0.0054,-0.047033 3.05e-4,-0.093642 0,-0.140974 -0.01024,-0.094408 0.01804,-0.186031 0.03033,-0.2783796 0.0063,-0.04641 0.0081,-0.070245 0.0089,-0.080302 -7.95e-4,0.00231 -0.0025,0.00538 -0.0036,0.00713 -0.0016,-0.00281 -0.0044,-0.013736 -0.0019,-0.044611 0.0027,-0.033057 0.0084,-0.065221 0.0125,-0.098147 0.0041,-0.020768 0.01002,-0.041435 0.01249,-0.062456 0.0177,-0.1502551 -0.0083,0.00785 0.0019,-0.1142071 0.0063,-0.074248 0.02585,-0.1455155 0.03033,-0.2194916 -8.68e-4,-0.086583 0.02264,-0.1762757 0.06603,-0.2516121 0.03316,-0.057576 0.0377,-0.021671 0.01784,-0.071378 0.0107,-0.085949 0.0092,-0.090089 0.03747,-0.169526 v -0.00179 c 1e-5,-0.042157 3.9e-5,-0.084541 0,-0.1266984 -5.5e-5,-0.065908 9e-6,-0.13217 0,-0.1980777 7e-6,-0.00118 -3e-6,-0.00237 0,-0.00357 -0.0078,-0.013868 -0.01496,-0.027787 -0.02319,-0.041044 -0.0036,-0.00563 -0.0016,-0.012997 -0.0019,-0.019629 -0.0011,-0.050763 0.0033,-0.103294 0.0089,-0.1534657 -0.0023,-0.00356 -0.0056,-0.00671 -0.0071,-0.010707 -0.01072,-0.025964 -0.01304,-0.054252 -0.01784,-0.082086 0.0013,0.0031 0.0081,0.00854 0.0071,0.00535 -0.0025,-0.00835 -0.0068,-0.015406 -0.01071,-0.0232 -0.002,-0.00376 -0.0036,-0.00687 -0.0055,-0.010707 -0.01325,-0.031961 -0.03149,-0.070907 -0.03926,-0.1052844 -0.0081,-0.036092 -0.0129,-0.04996 -0.01606,-0.064241 z m -0.0714,2.3876395 c -7.54e-4,8.627e-4 -0.0012,0.00264 -0.0019,0.00357 9.14e-4,-9.132e-4 0.0026,-8.852e-4 0.0036,-0.00179 z" />
  <path
     id="circle13438"
     style="fill:none;fill-opacity:1;fill-rule:evenodd;stroke:#ffffff;stroke-width:1.0068;stroke-opacity:1"
     d="m 8.0273438,1.0527344 a 6.9662728,6.9662728 0 0 0 -6.9667969,6.9648437 6.9662728,6.9662728 0 0 0 6.9667969,6.9667969 6.9662728,6.9662728 0 0 0 3.5292972,-0.962891 6.9662728,6.9662728 0 0 0 0.002,-0.002 6.9662728,6.9662728 0 0 0 3.433594,-6.0019529 6.9662728,6.9662728 0 0 0 -6.9648442,-6.9648437 z" />
</svg>
